<svg
  xmlns="http://www.w3.org/2000/svg"
  xmlns:xlink="http://www.w3.org/1999/xlink"
  width="330px" height="61px">
<path fill-rule="evenodd"  fill="rgb(255, 255, 255)"
  d="M323.1000,59.869 C320.686,59.869 317.1000,57.183 317.1000,53.870 C317.1000,50.556 320.686,47.871 323.1000,47.871 C327.314,47.871 329.1000,50.556 329.1000,53.870 C329.1000,57.183 327.314,59.869 323.1000,59.869 ZM295.050,60.469 C291.524,60.469 288.203,59.576 285.300,58.005 C285.300,58.005 285.300,58.005 285.300,58.005 C285.116,59.063 284.196,59.869 283.085,59.869 L276.750,59.869 C275.507,59.869 274.500,58.861 274.500,57.619 L274.500,3.327 C274.500,2.084 275.507,1.077 276.750,1.077 L283.050,1.077 C284.292,1.077 285.300,2.084 285.300,3.326 C285.300,3.327 285.300,3.327 285.300,3.327 L285.300,3.328 L285.300,21.839 C288.203,20.267 291.524,19.375 295.050,19.375 C306.381,19.375 315.600,28.591 315.600,39.921 C315.600,51.252 306.381,60.469 295.050,60.469 ZM295.050,30.173 C289.674,30.173 285.300,34.546 285.300,39.921 C285.300,45.297 289.674,49.670 295.050,49.670 C300.426,49.670 304.800,45.297 304.800,39.921 C304.800,34.546 300.426,30.173 295.050,30.173 ZM266.250,59.869 L259.914,59.869 C258.804,59.869 257.884,59.064 257.700,58.006 C257.700,58.006 257.700,58.005 257.700,58.005 C254.797,59.576 251.476,60.469 247.950,60.469 C236.619,60.469 227.400,51.252 227.400,39.921 C227.400,28.591 236.619,19.375 247.950,19.375 C259.281,19.375 268.500,28.591 268.500,39.921 L268.500,57.619 C268.500,58.861 267.493,59.869 266.250,59.869 ZM247.950,30.173 C242.574,30.173 238.200,34.546 238.200,39.921 C238.200,45.297 242.574,49.670 247.950,49.670 C253.326,49.670 257.700,45.297 257.700,39.921 C257.700,34.546 253.326,30.173 247.950,30.173 ZM222.150,59.869 L190.650,59.869 C189.407,59.869 188.400,58.861 188.400,57.619 L188.400,3.329 C188.400,3.328 188.400,3.328 188.400,3.327 C188.400,3.326 188.400,3.326 188.400,3.325 C188.401,2.083 189.408,1.077 190.650,1.077 L196.950,1.077 C198.193,1.077 199.200,2.084 199.200,3.327 L199.200,46.821 C199.200,48.063 200.208,49.070 201.450,49.070 L222.149,49.070 C222.150,49.070 222.150,49.070 222.150,49.070 C222.150,49.070 222.151,49.070 222.151,49.070 C223.393,49.070 224.400,50.078 224.400,51.320 L224.400,57.619 C224.400,58.861 223.393,59.869 222.150,59.869 ZM161.850,60.469 C150.519,60.469 141.300,51.252 141.300,39.921 C141.300,28.591 150.519,19.375 161.850,19.375 C173.181,19.375 182.400,28.591 182.400,39.921 C182.400,51.252 173.181,60.469 161.850,60.469 ZM161.850,30.173 C156.474,30.173 152.100,34.546 152.100,39.921 C152.100,45.297 156.474,49.670 161.850,49.670 C167.226,49.670 171.600,45.297 171.600,39.921 C171.600,34.546 167.226,30.173 161.850,30.173 ZM136.050,30.773 L127.949,30.773 C126.707,30.774 125.700,31.780 125.700,33.022 L125.700,57.619 L125.700,57.619 C125.700,57.619 125.700,57.619 125.700,57.620 C125.700,58.862 124.692,59.869 123.450,59.869 L117.150,59.869 C115.907,59.869 114.900,58.862 114.900,57.620 C114.900,57.619 114.900,57.619 114.900,57.619 L114.900,57.619 L114.900,33.022 C114.900,31.780 113.893,30.774 112.651,30.773 L104.550,30.773 C103.307,30.773 102.300,29.765 102.300,28.523 L102.300,22.224 C102.300,20.982 103.307,19.975 104.549,19.974 C104.550,19.974 104.550,19.974 104.550,19.974 C104.550,19.974 104.550,19.974 104.551,19.974 L112.650,19.974 C113.892,19.974 114.900,18.967 114.900,17.725 L114.900,11.726 C114.900,11.726 114.900,11.726 114.900,11.725 L114.900,11.725 C114.900,10.483 115.907,9.476 117.150,9.476 L123.450,9.476 C124.692,9.476 125.700,10.483 125.700,11.725 L125.700,11.725 C125.700,11.726 125.700,11.726 125.700,11.726 L125.700,17.725 C125.700,18.967 126.708,19.974 127.950,19.974 L136.049,19.974 C136.050,19.974 136.050,19.974 136.050,19.974 C136.050,19.974 136.050,19.974 136.051,19.974 C137.293,19.975 138.300,20.982 138.300,22.224 L138.300,28.523 C138.300,29.765 137.293,30.773 136.050,30.773 ZM78.750,60.469 C67.419,60.469 58.200,51.252 58.200,39.921 C58.200,28.591 67.419,19.375 78.750,19.375 C90.081,19.375 99.300,28.591 99.300,39.921 C99.300,51.252 90.081,60.469 78.750,60.469 ZM78.750,30.173 C73.374,30.173 69.000,34.546 69.000,39.921 C69.000,45.297 73.374,49.670 78.750,49.670 C84.126,49.670 88.500,45.297 88.500,39.921 C88.500,34.546 84.126,30.173 78.750,30.173 ZM30.000,49.670 C35.554,49.670 40.814,47.253 44.441,43.118 C44.449,43.110 44.456,43.102 44.463,43.094 C44.875,42.605 45.492,42.295 46.182,42.295 C46.645,42.295 47.076,42.435 47.434,42.675 L47.452,42.687 L52.619,46.312 L52.629,46.319 C53.224,46.723 53.615,47.406 53.615,48.179 C53.615,48.713 53.428,49.202 53.118,49.587 C53.104,49.605 53.090,49.621 53.076,49.637 C47.401,56.460 38.945,60.469 30.000,60.469 C21.987,60.469 14.453,57.349 8.787,51.683 C3.120,46.018 0.000,38.485 0.000,30.473 C0.000,22.461 3.120,14.928 8.787,9.263 C14.453,3.597 21.987,0.477 30.000,0.477 C38.946,0.477 47.403,4.487 53.079,11.312 C53.091,11.326 53.104,11.341 53.116,11.356 C53.427,11.742 53.615,12.233 53.615,12.767 C53.615,13.538 53.226,14.218 52.634,14.624 L52.617,14.636 L47.458,18.254 L47.431,18.273 C47.073,18.512 46.644,18.652 46.182,18.652 C45.496,18.652 44.882,18.344 44.470,17.860 C44.460,17.849 44.450,17.837 44.440,17.826 C40.812,13.692 35.553,11.276 30.000,11.276 C19.413,11.276 10.800,19.888 10.800,30.473 C10.800,41.058 19.413,49.670 30.000,49.670 Z"/>
</svg>